<svg width="100" height="100" viewBox="0 0 100 100" fill="none" xmlns="http://www.w3.org/2000/svg">
<path d="M84.7095 17.6159C78.2363 14.5872 71.3149 12.3861 64.0787 11.1328C63.19 12.7395 62.1518 14.9006 61.436 16.6197C53.7437 15.4629 46.1223 15.4629 38.5715 16.6197C37.8558 14.9006 36.794 12.7395 35.8973 11.1328C28.6534 12.3861 21.724 14.5953 15.2508 17.6319C2.19434 37.3619 -1.34505 56.6019 0.424653 75.5686C9.08438 82.0355 17.4767 85.9639 25.7274 88.5346C27.7645 85.7309 29.5814 82.7505 31.1466 79.6095C28.1656 78.4768 25.3105 77.079 22.6128 75.4562C23.3285 74.926 24.0286 74.3717 24.7049 73.8013C41.1591 81.4973 59.0371 81.4973 75.2947 73.8013C75.979 74.3717 76.679 74.926 77.3868 75.4562C74.6812 77.0869 71.8183 78.4847 68.8373 79.6176C70.4025 82.7505 72.2115 85.739 74.2565 88.5426C82.5151 85.9719 90.9152 82.0436 99.575 75.5686C101.651 53.5813 96.0278 34.5181 84.7095 17.6159ZM33.3882 63.9043C28.4488 63.9043 24.3981 59.293 24.3981 53.6777C24.3981 48.0624 28.3623 43.4432 33.3882 43.4432C38.4143 43.4432 42.4648 48.0543 42.3783 53.6777C42.3861 59.293 38.4143 63.9043 33.3882 63.9043ZM66.6114 63.9043C61.672 63.9043 57.6213 59.293 57.6213 53.6777C57.6213 48.0624 61.5854 43.4432 66.6114 43.4432C71.6373 43.4432 75.688 48.0543 75.6015 53.6777C75.6015 59.293 71.6373 63.9043 66.6114 63.9043Z" fill="white"/>
</svg>
